<svg width="104" height="104" viewBox="0 0 104 104" fill="none" xmlns="http://www.w3.org/2000/svg">
<path d="M44.472 42.1831C45.7468 37.4897 44.5007 32.246 40.8213 28.5665C37.1419 24.8871 31.9272 23.6701 27.2048 24.9159L37.1709 14.9497C41.8644 13.675 47.1083 14.9206 50.7878 18.6001C54.4672 22.2795 55.684 27.4945 54.4382 32.217L44.472 42.1831Z" fill="#003049"/>
<path d="M54.4672 66.7226C55.7419 62.0291 54.4962 56.7851 50.8167 53.1057C47.1373 49.4262 41.9223 48.2095 37.1998 49.4553L47.1663 39.4888C51.8598 38.214 57.1038 39.4598 60.7832 43.1392C64.4626 46.8186 65.6794 52.0337 64.4336 56.7561L54.4672 66.7226Z" fill="#003049"/>
<path d="M27.2336 59.4214C28.5084 54.728 27.2623 49.4843 23.5829 45.8048C19.9035 42.1254 14.6888 40.9084 9.96636 42.1542L19.9325 32.188C24.626 30.9132 29.8699 32.1589 33.5494 35.8384C37.2288 39.5178 38.4456 44.7328 37.1998 49.4552L27.2336 59.4214Z" fill="#003049"/>
<path d="M79.0065 76.7177C80.2813 72.0242 79.0353 66.7806 75.3559 63.1012C71.6765 59.4217 66.4617 58.2047 61.7393 59.4505L71.7055 49.4843C76.3989 48.2095 81.6429 49.4553 85.3224 53.1347C89.0018 56.8141 90.2185 62.0291 88.9727 66.7515L79.0065 76.7177Z" fill="#003049"/>
<path d="M61.7681 93.956C63.0429 89.2625 61.7969 84.0189 58.1175 80.3394C54.4381 76.66 49.2233 75.4429 44.5009 76.6887L54.4671 66.7226C59.1605 65.4478 64.4045 66.6935 68.084 70.373C71.7634 74.0524 72.9801 79.2674 71.7343 83.9898L61.7681 93.956Z" fill="#003049"/>
<path d="M34.5345 86.6553C35.8092 81.9618 34.5635 76.7178 30.884 73.0384C27.2046 69.3589 21.9896 68.1422 17.2671 69.388L27.2336 59.4215C31.9271 58.1467 37.1708 59.3928 40.8502 63.0722C44.5296 66.7516 45.7467 71.9664 44.5009 76.6888L34.5345 86.6553Z" fill="#003049"/>
<path d="M71.7054 49.4843C72.9802 44.7908 71.7344 39.5468 68.055 35.8674C64.3756 32.188 59.1605 30.9712 54.4381 32.217L64.4046 22.2505C69.098 20.9757 74.342 22.2215 78.0215 25.9009C81.7009 29.5804 82.9177 34.7954 81.6719 39.5178L71.7054 49.4843Z" fill="#003049"/>
</svg>
