<svg width="92" height="15" viewBox="0 0 92 15" fill="none" xmlns="http://www.w3.org/2000/svg">
<path d="M7.53302 12.2736C7.75548 12.1393 8.034 12.1393 8.25645 12.2736L11.3534 14.1428C11.8835 14.4627 12.5375 13.9874 12.3968 13.3844L11.5749 9.86146C11.5159 9.60842 11.6019 9.34349 11.7983 9.17335L14.5355 6.80211C15.0035 6.39667 14.7533 5.62788 14.1363 5.57554L10.5338 5.26989C10.2751 5.24795 10.0498 5.08461 9.94844 4.84556L8.53924 1.52066C8.29803 0.95154 7.49145 0.951539 7.25023 1.52066L5.84104 4.84556C5.73972 5.08461 5.51442 5.24795 5.25571 5.26989L1.65314 5.57554C1.03614 5.62788 0.785957 6.39666 1.25398 6.80211L3.99118 9.17335C4.18758 9.34349 4.27357 9.60842 4.21454 9.86146L3.39268 13.3844C3.25201 13.9874 3.90597 14.4627 4.43609 14.1428L7.53302 12.2736Z" fill="#FF6400"/>
<path d="M26.533 12.2736C26.7555 12.1393 27.034 12.1393 27.2565 12.2736L30.3534 14.1428C30.8835 14.4627 31.5375 13.9874 31.3968 13.3844L30.5749 9.86146C30.5159 9.60842 30.6019 9.34349 30.7983 9.17335L33.5355 6.80211C34.0035 6.39667 33.7533 5.62788 33.1363 5.57554L29.5338 5.26989C29.2751 5.24795 29.0498 5.08461 28.9484 4.84556L27.5392 1.52066C27.298 0.95154 26.4914 0.951539 26.2502 1.52066L24.841 4.84556C24.7397 5.08461 24.5144 5.24795 24.2557 5.26989L20.6531 5.57554C20.0361 5.62788 19.786 6.39666 20.254 6.80211L22.9912 9.17335C23.1876 9.34349 23.2736 9.60842 23.2145 9.86146L22.3927 13.3844C22.252 13.9874 22.906 14.4627 23.4361 14.1428L26.533 12.2736Z" fill="#FF6400"/>
<path d="M45.533 12.2736C45.7555 12.1393 46.034 12.1393 46.2565 12.2736L49.3534 14.1428C49.8835 14.4627 50.5375 13.9874 50.3968 13.3844L49.5749 9.86146C49.5159 9.60842 49.6019 9.34349 49.7983 9.17335L52.5355 6.80211C53.0035 6.39667 52.7533 5.62788 52.1363 5.57554L48.5338 5.26989C48.2751 5.24795 48.0498 5.08461 47.9484 4.84556L46.5392 1.52066C46.298 0.95154 45.4914 0.951539 45.2502 1.52066L43.841 4.84556C43.7397 5.08461 43.5144 5.24795 43.2557 5.26989L39.6531 5.57554C39.0361 5.62788 38.786 6.39666 39.254 6.80211L41.9912 9.17335C42.1876 9.34349 42.2736 9.60842 42.2145 9.86146L41.3927 13.3844C41.252 13.9874 41.906 14.4627 42.4361 14.1428L45.533 12.2736Z" fill="#FF6400"/>
<path d="M64.533 12.2736C64.7555 12.1393 65.034 12.1393 65.2565 12.2736L68.3534 14.1428C68.8835 14.4627 69.5375 13.9874 69.3968 13.3844L68.5749 9.86146C68.5159 9.60842 68.6019 9.34349 68.7983 9.17335L71.5355 6.80211C72.0035 6.39667 71.7533 5.62788 71.1363 5.57554L67.5338 5.26989C67.2751 5.24795 67.0498 5.08461 66.9484 4.84556L65.5392 1.52066C65.298 0.95154 64.4914 0.951539 64.2502 1.52066L62.841 4.84556C62.7397 5.08461 62.5144 5.24795 62.2557 5.26989L58.6531 5.57554C58.0361 5.62788 57.786 6.39666 58.254 6.80211L60.9912 9.17335C61.1876 9.34349 61.2736 9.60842 61.2145 9.86146L60.3927 13.3844C60.252 13.9874 60.906 14.4627 61.4361 14.1428L64.533 12.2736Z" fill="#FF6400"/>
<path d="M83.533 12.2736C83.7555 12.1393 84.034 12.1393 84.2565 12.2736L87.3534 14.1428C87.8835 14.4627 88.5375 13.9874 88.3968 13.3844L87.5749 9.86146C87.5159 9.60842 87.6019 9.34349 87.7983 9.17335L90.5355 6.80211C91.0035 6.39667 90.7533 5.62788 90.1363 5.57554L86.5338 5.26989C86.2751 5.24795 86.0498 5.08461 85.9484 4.84556L84.5392 1.52066C84.298 0.95154 83.4914 0.951539 83.2502 1.52066L81.841 4.84556C81.7397 5.08461 81.5144 5.24795 81.2557 5.26989L77.6531 5.57554C77.0361 5.62788 76.786 6.39666 77.254 6.80211L79.9912 9.17335C80.1876 9.34349 80.2736 9.60842 80.2145 9.86146L79.3927 13.3844C79.252 13.9874 79.906 14.4627 80.4361 14.1428L83.533 12.2736Z" fill="#FF6400"/>
</svg>
